<svg width="1125" height="420" viewBox="0 0 1125 420" fill="none" xmlns="http://www.w3.org/2000/svg">
  <rect width="1125" height="420" rx="0" fill="#B90000"/>
  <g stroke="#F4C76A" stroke-width="8" stroke-linecap="round" stroke-linejoin="round">
    <path d="M0 72C86 82 134 42 160 0"/>
    <path d="M1125 72C1039 82 991 42 965 0"/>
  </g>

  <g stroke="#F4C76A" stroke-width="6" fill="none" opacity="0.98">
    <g transform="translate(8 170)">
      <ellipse cx="0" cy="0" rx="116" ry="116"/>
      <ellipse cx="0" cy="0" rx="86" ry="86"/>
      <ellipse cx="0" cy="0" rx="58" ry="58"/>
      <ellipse cx="0" cy="-104" rx="42" ry="72"/>
      <ellipse cx="72" cy="-74" rx="42" ry="72" transform="rotate(45 72 -74)"/>
      <ellipse cx="104" cy="0" rx="42" ry="72" transform="rotate(90 104 0)"/>
      <ellipse cx="72" cy="74" rx="42" ry="72" transform="rotate(135 72 74)"/>
      <ellipse cx="0" cy="104" rx="42" ry="72"/>
      <ellipse cx="-72" cy="74" rx="42" ry="72" transform="rotate(45 -72 74)"/>
      <ellipse cx="-104" cy="0" rx="42" ry="72" transform="rotate(90 -104 0)"/>
      <ellipse cx="-72" cy="-74" rx="42" ry="72" transform="rotate(135 -72 -74)"/>
      <ellipse cx="0" cy="-58" rx="24" ry="40"/>
      <ellipse cx="40" cy="-40" rx="24" ry="40" transform="rotate(45 40 -40)"/>
      <ellipse cx="58" cy="0" rx="24" ry="40" transform="rotate(90 58 0)"/>
      <ellipse cx="40" cy="40" rx="24" ry="40" transform="rotate(135 40 40)"/>
      <ellipse cx="0" cy="58" rx="24" ry="40"/>
      <ellipse cx="-40" cy="40" rx="24" ry="40" transform="rotate(45 -40 40)"/>
      <ellipse cx="-58" cy="0" rx="24" ry="40" transform="rotate(90 -58 0)"/>
      <ellipse cx="-40" cy="-40" rx="24" ry="40" transform="rotate(135 -40 -40)"/>
    </g>

    <g transform="translate(1117 170)">
      <ellipse cx="0" cy="0" rx="116" ry="116"/>
      <ellipse cx="0" cy="0" rx="86" ry="86"/>
      <ellipse cx="0" cy="0" rx="58" ry="58"/>
      <ellipse cx="0" cy="-104" rx="42" ry="72"/>
      <ellipse cx="72" cy="-74" rx="42" ry="72" transform="rotate(45 72 -74)"/>
      <ellipse cx="104" cy="0" rx="42" ry="72" transform="rotate(90 104 0)"/>
      <ellipse cx="72" cy="74" rx="42" ry="72" transform="rotate(135 72 74)"/>
      <ellipse cx="0" cy="104" rx="42" ry="72"/>
      <ellipse cx="-72" cy="74" rx="42" ry="72" transform="rotate(45 -72 74)"/>
      <ellipse cx="-104" cy="0" rx="42" ry="72" transform="rotate(90 -104 0)"/>
      <ellipse cx="-72" cy="-74" rx="42" ry="72" transform="rotate(135 -72 -74)"/>
      <ellipse cx="0" cy="-58" rx="24" ry="40"/>
      <ellipse cx="40" cy="-40" rx="24" ry="40" transform="rotate(45 40 -40)"/>
      <ellipse cx="58" cy="0" rx="24" ry="40" transform="rotate(90 58 0)"/>
      <ellipse cx="40" cy="40" rx="24" ry="40" transform="rotate(135 40 40)"/>
      <ellipse cx="0" cy="58" rx="24" ry="40"/>
      <ellipse cx="-40" cy="40" rx="24" ry="40" transform="rotate(45 -40 40)"/>
      <ellipse cx="-58" cy="0" rx="24" ry="40" transform="rotate(90 -58 0)"/>
      <ellipse cx="-40" cy="-40" rx="24" ry="40" transform="rotate(135 -40 -40)"/>
    </g>
  </g>

  <g stroke="#F4C76A" stroke-width="7" stroke-linecap="round" stroke-linejoin="round" fill="none">
    <circle cx="631" cy="114" r="22"/>
    <path d="M620 138C644 142 662 159 676 191"/>
    <path d="M612 154C653 160 688 170 721 181"/>
    <path d="M638 148C655 163 674 177 693 192"/>
    <path d="M654 167C682 196 713 223 744 248"/>
    <path d="M616 166C602 196 587 224 572 252"/>
    <path d="M605 166C569 187 535 203 505 214"/>
    <path d="M639 135C664 118 690 102 717 81"/>
    <path d="M499 214C531 207 561 199 588 190"/>
    <circle cx="548" cy="205" r="9" fill="#F4C76A"/>
    <path d="M715 82C695 93 676 106 658 118"/>
    <circle cx="687" cy="113" r="9" fill="#F4C76A"/>
    <path d="M604 196C586 232 568 265 545 301"/>
    <path d="M624 190C629 228 634 262 638 296"/>
    <path d="M657 171C654 205 646 236 632 267"/>
    <path d="M641 186C675 204 704 227 731 250"/>
    <path d="M626 126C617 124 608 125 601 131"/>
    <path d="M642 124C653 126 661 132 668 141"/>
    <path d="M606 104C619 93 632 90 649 92"/>
  </g>
</svg>
